<?xml version="1.0" standalone="no"?>
<!DOCTYPE svg PUBLIC "-//W3C//DTD SVG 20010904//EN"
 "http://www.w3.org/TR/2001/REC-SVG-20010904/DTD/svg10.dtd">
<svg version="1.0" xmlns="http://www.w3.org/2000/svg"
 width="516.000000pt" height="516.000000pt" viewBox="0 0 516.000000 516.000000"
 preserveAspectRatio="xMidYMid meet">
<metadata>
Created by potrace 1.11, written by Peter Selinger 2001-2013
</metadata>
<g transform="translate(0.000000,516.000000) scale(0.100000,-0.100000)"
fill="#000000" stroke="none">
<path d="M17 5142 c-6 -11 30 -45 36 -34 4 4 -3 16 -13 25 -11 9 -21 13 -23 9z"/>
<path d="M345 4989 c1 -88 -3 -165 -8 -172 -6 -8 -7 -6 -3 5 3 11 -2 22 -14
28 -14 7 -20 7 -20 0 0 -5 5 -10 10 -10 6 0 10 -6 10 -13 0 -9 -37 -12 -155
-12 -85 1 -155 -2 -155 -5 0 -3 76 -6 169 -6 l169 1 -3 -27 c-2 -16 1 -28 7
-28 5 0 8 6 5 13 -3 8 6 20 21 28 23 13 120 15 627 14 l599 -1 1 -94 c0 -52
-3 -103 -8 -114 -5 -10 -5 -21 -1 -25 5 -3 9 -29 8 -58 0 -28 3 -50 6 -48 9 6
6 97 -3 113 -5 7 -3 12 6 12 8 0 36 10 63 22 27 12 52 21 57 20 4 -1 7 2 7 8
0 5 6 7 13 4 8 -3 20 2 27 10 7 9 16 13 21 10 5 -3 9 0 9 5 0 15 -16 14 -32
-2 -7 -7 -24 -13 -37 -14 -13 -1 -27 -6 -30 -11 -5 -7 -83 -42 -94 -42 -5 0
-1 186 5 195 4 6 93 10 237 9 127 0 231 2 231 6 0 3 -107 6 -238 5 l-238 -1 1
158 c1 87 -2 163 -5 169 -4 5 -6 -65 -6 -156 1 -103 -3 -165 -9 -166 -5 -1
-287 -2 -625 -3 l-615 -1 1 163 c0 90 -2 165 -6 167 -3 2 -5 -68 -5 -156z"/>
<path d="M2575 4989 c0 -97 -4 -163 -10 -167 -5 -3 -109 -6 -231 -6 -122 -1
-225 -4 -228 -7 -4 -3 36 -6 88 -5 91 1 119 -13 40 -19 -62 -5 -144 -21 -152
-30 -6 -5 47 1 92 11 11 3 37 7 56 9 19 2 51 6 70 10 19 4 45 8 58 8 12 1 22
6 22 12 0 5 4 4 9 -4 7 -11 13 -12 23 -4 10 8 69 10 153 4 6 -1 10 -149 10
-425 l0 -423 -56 1 c-43 2 -56 -1 -52 -11 3 -7 8 -11 12 -8 4 2 21 6 37 9 57
10 59 5 59 -201 l0 -188 -422 1 c-233 0 -423 -2 -423 -5 0 -4 146 -6 324 -6
240 0 322 -3 319 -11 -5 -14 66 -8 81 7 14 13 28 11 20 -3 -5 -7 -3 -8 6 -3 8
5 32 9 54 9 l40 1 1 -195 c1 -107 0 -198 -2 -202 -2 -4 -26 19 -53 51 -27 33
-77 80 -110 106 -60 46 -214 125 -244 125 -9 0 -13 6 -10 15 3 8 9 14 12 13
14 -4 52 14 52 24 0 7 -4 7 -13 -1 -8 -6 -17 -8 -20 -4 -4 3 -7 1 -7 -6 0 -7
-4 -10 -9 -7 -5 3 -14 0 -20 -8 -10 -12 -21 -12 -69 -1 -31 7 -84 16 -117 20
-33 4 -71 8 -84 10 -13 3 -77 5 -142 6 -90 1 -119 5 -119 15 0 7 4 15 10 19 5
3 6 13 3 22 -5 12 -3 14 8 7 18 -11 68 -14 74 -4 3 4 -11 7 -31 6 -57 -2 -56
1 39 89 12 11 26 19 30 17 5 -1 5 2 2 9 -8 12 -33 -8 -106 -84 -26 -27 -49
-45 -52 -40 -3 4 -229 8 -504 8 -298 0 -501 4 -505 9 -4 6 -12 6 -20 0 -14
-11 -186 -13 -203 -2 -6 4 -10 211 -9 591 0 322 -3 584 -6 582 -3 -2 -6 -268
-5 -592 l0 -589 -167 1 c-93 0 -168 -2 -168 -6 0 -3 72 -6 161 -5 97 1 164 -3
168 -9 4 -5 7 -144 6 -307 0 -164 2 -298 6 -298 3 0 5 138 5 308 l-1 307 614
-1 c460 0 616 -4 619 -12 2 -7 -1 -12 -7 -12 -6 0 -11 -5 -11 -10 0 -6 12 -3
28 7 22 14 25 15 15 2 -7 -9 -9 -19 -5 -23 4 -5 -7 -7 -23 -5 -17 2 -35 1 -40
-2 -6 -3 -37 -7 -70 -8 -64 -2 -92 -6 -195 -22 l-66 -10 -2 -372 c-4 -488 -4
-552 0 -944 l3 -332 60 -10 c33 -5 88 -13 122 -17 48 -5 69 -13 93 -34 16 -15
27 -30 22 -35 -4 -4 -1 -5 6 -1 7 4 12 1 12 -8 0 -8 12 -25 28 -38 15 -13 28
-28 29 -34 1 -6 -184 -9 -500 -8 -276 1 -505 2 -509 3 -3 0 -14 21 -24 46 -9
25 -21 45 -26 45 -5 0 -4 -9 2 -20 6 -11 7 -20 3 -20 -4 0 -3 -4 2 -8 6 -4 15
-16 21 -27 11 -20 9 -21 -94 -20 l-106 1 -1 286 c0 158 -2 289 -5 292 -3 2 -5
-122 -5 -277 1 -155 0 -287 -2 -292 -2 -7 -64 -10 -168 -10 -90 0 -162 -2
-159 -5 3 -3 74 -6 157 -6 84 -1 157 -2 162 -3 11 -1 14 -1218 3 -1236 -4 -6
-70 -10 -168 -9 -88 0 -156 -2 -151 -6 6 -3 76 -6 156 -5 81 0 148 -2 150 -5
2 -3 -3 -14 -11 -25 -8 -10 -14 -16 -14 -12 0 4 -9 -1 -19 -10 -11 -9 -17 -21
-14 -26 3 -5 20 7 38 26 19 20 35 30 37 24 3 -7 4 -78 3 -160 0 -81 2 -147 5
-147 12 0 5 320 -7 328 -6 4 142 7 328 6 187 0 341 2 344 5 2 4 -139 6 -312 6
-173 0 -317 3 -319 6 -2 4 6 18 17 33 11 14 16 26 10 26 -5 0 -14 -6 -18 -14
-4 -8 -14 -16 -22 -18 -12 -3 -14 88 -15 607 l-1 610 104 -1 c90 -1 106 -3
117 -20 7 -10 18 -24 24 -31 5 -7 11 -21 13 -33 2 -11 9 -26 15 -32 18 -18 -6
52 -26 75 -8 9 -11 17 -7 17 5 0 1 6 -8 12 -14 11 80 13 481 13 556 -1 538 2
536 -68 0 -20 2 -35 5 -32 3 4 6 29 7 58 1 29 0 46 -3 40 -3 -7 -9 -13 -15
-13 -6 0 -6 6 2 15 6 8 8 20 4 26 -4 7 -3 9 3 6 6 -4 9 18 9 56 l-1 62 63 2
c34 1 62 -2 62 -6 0 -5 -13 -18 -30 -31 -16 -12 -27 -27 -24 -32 3 -5 23 9 45
31 34 36 44 41 86 42 26 1 57 3 68 4 11 1 47 5 80 9 52 6 64 5 86 -13 15 -11
29 -17 33 -14 3 3 6 2 6 -3 0 -5 13 -17 29 -27 22 -13 32 -14 37 -6 4 8 3 9
-4 5 -7 -4 -12 -2 -12 5 0 7 -3 9 -7 6 -3 -4 -17 3 -30 15 -13 12 -23 18 -23
15 0 -4 -9 1 -19 10 -19 16 -15 18 88 53 59 19 140 55 179 78 71 42 176 137
223 200 l24 34 0 -249 c-1 -136 -4 -253 -8 -260 -4 -6 -16 -9 -27 -6 -11 3
-20 1 -20 -5 0 -5 12 -8 28 -6 l27 3 0 -189 c-1 -105 2 -190 5 -190 4 0 6 84
6 187 l0 187 460 1 c252 0 469 -4 481 -9 14 -5 20 -15 18 -27 -2 -11 1 -19 7
-19 5 0 8 6 5 14 -14 37 28 40 533 40 270 1 490 -1 490 -4 0 -3 -7 -16 -16
-28 -9 -13 -11 -22 -4 -22 6 0 15 12 21 28 l9 27 100 0 c55 -1 103 -4 107 -8
4 -4 7 -280 7 -612 1 -492 -1 -605 -12 -605 -7 0 -10 -5 -7 -11 4 -5 12 -8 18
-6 9 3 12 162 12 622 l0 619 162 0 c89 1 164 4 167 7 3 3 -69 5 -162 5 l-167
-1 0 479 0 480 168 0 c92 0 167 3 167 6 0 3 -72 6 -161 5 -88 0 -164 2 -168 5
-3 3 -7 220 -6 482 0 442 1 477 17 472 9 -2 19 0 23 6 4 6 3 10 -2 9 -39 -7
-38 -29 -38 623 l0 622 162 0 c89 1 164 4 167 7 4 3 -64 5 -150 5 -85 -1 -158
2 -160 6 -3 4 7 15 21 24 13 9 22 21 19 26 -6 10 -33 -14 -50 -45 -7 -12 -10
35 -9 153 1 93 -1 167 -4 164 -3 -3 -6 -75 -7 -160 0 -84 -4 -157 -8 -161 -12
-12 -2225 -10 -2218 2 9 13 10 325 2 325 -3 0 -6 -72 -5 -161z m155 -192 c0
-4 9 -3 20 3 14 7 20 7 20 0 0 -13 43 -13 57 1 8 8 13 7 18 -2 6 -8 4 -10 -6
-4 -8 5 -11 4 -7 0 12 -12 58 -15 58 -4 0 6 -4 8 -9 4 -5 -3 -12 -1 -15 4 -11
18 24 5 39 -15 14 -19 14 -19 9 1 -5 20 0 20 305 20 171 -1 313 -4 317 -8 5
-4 8 -52 9 -106 l1 -99 -23 15 c-15 10 -23 11 -23 4 0 -6 6 -11 14 -11 8 0 18
-6 23 -12 4 -7 8 -238 8 -513 0 -469 1 -500 17 -499 10 1 15 -3 12 -10 -3 -6
5 3 19 19 14 17 23 32 20 35 -2 3 -10 -3 -17 -12 -7 -9 -18 -18 -26 -20 -11
-2 -13 85 -14 495 -1 273 2 497 5 497 4 0 18 -9 33 -21 14 -11 26 -18 26 -14
0 3 14 -3 30 -15 17 -12 30 -18 30 -14 0 4 9 -2 21 -14 11 -12 24 -20 29 -17
4 3 11 -2 14 -11 3 -8 10 -12 16 -9 5 3 10 1 10 -5 0 -6 4 -9 9 -6 5 4 12 0
14 -6 4 -8 6 -9 6 -2 1 13 -43 45 -65 48 -7 1 -21 10 -32 19 -10 9 -22 14 -25
10 -4 -3 -7 -1 -7 5 0 10 -24 22 -43 22 -4 -1 -15 6 -23 14 -8 9 -22 20 -31
25 -13 7 -16 28 -17 112 l-1 104 607 0 c334 -1 610 -4 614 -8 4 -4 12 -3 18 2
8 7 11 -166 11 -618 l0 -627 -105 0 c-60 0 -108 5 -112 11 -6 7 -10 7 -15 0
-5 -7 -161 -10 -445 -9 -241 0 -438 -2 -438 -5 0 -3 201 -6 448 -6 l447 0 15
-32 c8 -18 18 -33 23 -33 4 0 1 14 -8 30 -9 17 -12 30 -8 31 54 6 186 2 191
-6 12 -19 8 -626 -4 -621 -12 4 -13 -38 -1 -50 3 -4 4 4 2 16 -2 12 -1 20 2
16 13 -13 11 -37 -3 -43 -13 -5 -12 -9 2 -30 9 -14 11 -22 5 -19 -6 4 -11 3
-11 -3 0 -5 5 -13 10 -16 8 -5 7 -11 -1 -21 -9 -11 -9 -14 1 -14 10 0 10 -3 0
-15 -7 -8 -9 -15 -4 -15 5 0 9 -30 9 -67 l0 -68 -405 1 c-223 1 -414 2 -426 3
-15 1 -21 8 -21 29 -2 68 -8 112 -16 112 -4 0 -6 -8 -3 -17 9 -31 10 -108 2
-122 -6 -10 -15 -7 -35 12 -14 14 -54 41 -89 60 l-63 34 36 27 c52 40 95 88
107 118 5 15 15 25 22 22 9 -3 13 4 14 23 0 15 2 64 5 107 10 180 -60 311
-216 402 -34 20 -65 42 -69 48 -4 7 -23 30 -43 52 l-36 39 28 6 c15 3 38 4 50
2 12 -2 24 0 27 5 2 4 -24 8 -59 7 -37 0 -59 -3 -52 -8 8 -6 7 -7 -3 -4 -8 2
-14 10 -13 16 2 6 -2 11 -8 11 -6 0 -20 11 -31 25 -11 14 -26 25 -34 25 -9 0
-12 5 -8 13 4 6 4 9 -1 5 -4 -4 -15 0 -24 10 -22 24 -91 76 -121 92 -14 7 -27
16 -30 19 -3 3 -20 14 -37 24 -28 15 -32 16 -27 3 3 -9 10 -13 15 -10 5 3 12
-2 15 -10 3 -9 10 -14 14 -11 4 3 13 -2 20 -10 7 -8 19 -15 26 -15 8 0 14 -4
14 -10 0 -5 3 -9 8 -8 7 3 26 -12 92 -69 21 -18 41 -33 44 -33 26 0 55 -73 35
-86 -5 -3 -9 -11 -9 -17 0 -7 7 -3 15 7 8 10 12 24 8 30 -3 6 -2 7 2 3 14 -13
23 -73 12 -84 -8 -7 -57 9 -57 19 0 5 5 6 12 2 7 -4 8 -3 4 5 -5 8 -12 8 -26
-2 -14 -10 -34 -11 -72 -6 -29 4 -145 7 -258 6 -143 0 -212 3 -227 12 -13 6
-23 9 -23 5 0 -3 -7 -1 -15 6 -8 7 -15 9 -15 5 0 -4 -7 -2 -15 5 -10 9 -15 9
-15 1 0 -10 13 -15 33 -12 4 0 7 -4 7 -10 0 -6 6 -9 13 -6 8 3 20 1 28 -4 8
-5 10 -9 4 -10 -29 -2 -88 -10 -156 -20 l-75 -11 0 -289 c1 -159 -2 -289 -6
-289 -5 0 -8 7 -8 15 0 21 -39 133 -63 180 -20 39 -20 56 -22 875 0 459 2 842
6 850 5 11 24 15 73 15 36 0 66 -4 66 -8z m-283 -1253 c-3 -3 -12 -4 -19 -1
-8 3 -5 6 6 6 11 1 17 -2 13 -5z m1134 -36 c7 -13 18 -27 25 -31 8 -4 18 -16
24 -27 10 -18 8 -18 -32 -7 -37 11 -42 16 -42 42 0 17 -4 33 -10 37 -7 5 -4 8
6 8 10 0 23 -10 29 -22z m-224 -341 c4 -6 1 -7 -8 -2 -8 5 -5 -1 5 -14 11 -12
29 -38 41 -58 12 -19 25 -31 29 -25 3 5 -1 13 -10 16 -8 3 -12 10 -9 16 3 5 1
10 -4 10 -6 0 -11 5 -11 11 0 7 -7 17 -15 23 -8 6 -11 16 -7 22 5 9 24 7 69
-7 67 -21 117 -66 106 -96 -5 -12 -3 -14 7 -8 8 5 11 4 6 -3 -3 -6 -2 -13 3
-16 9 -6 7 -83 -3 -93 -3 -3 -4 15 -2 41 2 25 0 48 -4 51 -4 2 -7 -27 -7 -66
0 -78 -14 -105 -38 -73 -8 10 -15 25 -15 32 0 7 -10 32 -22 55 -12 23 -22 46
-23 51 0 5 -7 11 -15 13 -13 4 -13 3 0 -6 8 -6 12 -11 7 -11 -4 0 0 -15 10
-32 9 -18 16 -36 15 -40 -1 -5 2 -8 8 -8 5 0 10 -8 10 -18 0 -10 5 -23 12 -30
7 -7 8 -12 2 -12 -5 0 -3 -4 5 -9 11 -7 8 -13 -14 -27 -44 -29 -140 -44 -287
-44 l-138 0 -1 28 c-3 118 3 217 14 230 8 11 8 14 0 9 -13 -8 -20 30 -14 75
l3 27 144 0 c88 -1 147 -5 151 -12z m-1567 -14 c0 -7 -5 -13 -11 -13 -5 0 -7
-5 -4 -10 4 -6 14 -1 25 12 17 22 20 22 99 11 44 -7 94 -19 111 -28 16 -8 32
-14 34 -13 3 2 21 -18 42 -44 40 -53 40 -52 49 -38 4 6 3 9 -2 8 -4 -2 -8 0
-8 3 0 4 -11 16 -25 28 -14 11 -19 20 -12 21 8 0 43 -29 79 -65 49 -49 63 -69
58 -84 -3 -11 0 -23 6 -27 8 -5 10 -3 4 7 -5 8 -4 11 1 6 5 -5 9 -12 9 -15 1
-4 6 -17 13 -29 20 -36 39 -134 41 -215 2 -75 1 -78 -21 -79 -123 -4 -628 -3
-643 2 -16 5 -21 2 -22 -13 -1 -13 2 -17 10 -11 7 5 161 9 342 9 l330 -1 0
-30 c2 -87 -53 -224 -121 -304 -69 -80 -188 -133 -331 -148 -62 -7 -86 -6 -99
4 -10 7 -15 13 -11 13 4 0 -6 24 -22 54 -17 30 -27 57 -24 60 4 3 1 6 -5 6
-14 0 -16 -13 -4 -24 4 -4 7 -11 7 -14 1 -4 9 -23 20 -42 30 -56 29 -66 -8
-64 -18 1 -43 2 -57 3 -24 1 -25 4 -23 43 1 26 -1 38 -6 29 -5 -8 -11 -9 -15
-3 -3 5 1 12 9 16 21 8 16 76 -5 68 -10 -3 -8 0 3 10 21 16 20 47 -3 66 -12 9
-12 12 -1 10 7 -2 16 3 19 11 2 8 0 11 -6 7 -6 -3 -14 -1 -18 6 -4 7 -4 10 1
6 4 -4 14 0 21 10 13 16 13 16 14 0 0 -10 5 -18 10 -18 7 0 7 6 1 18 -10 18
-11 24 -11 48 0 9 -5 12 -12 8 -8 -5 -7 0 2 11 14 17 13 17 -10 12 -14 -4 -19
-4 -12 -1 9 4 10 9 2 19 -8 10 -8 15 1 21 7 4 9 3 6 -3 -4 -6 -1 -13 6 -16 10
-4 13 2 9 18 -3 16 -9 22 -21 19 -13 -5 -13 -4 2 6 21 14 22 39 2 46 -12 5
-13 10 -4 20 6 8 8 14 3 14 -4 0 -3 5 4 12 17 17 15 28 -5 22 -15 -5 -16 -4
-3 5 15 10 24 55 9 46 -4 -3 -11 -1 -14 5 -4 6 -3 10 2 9 19 -3 30 2 30 16 0
11 -4 12 -13 4 -8 -7 -14 -6 -20 2 -4 8 -3 9 4 5 15 -9 16 6 2 20 -7 7 -6 11
4 11 8 0 13 -4 10 -9 -3 -4 0 -8 5 -8 6 0 11 11 11 25 0 14 7 41 14 60 8 19
13 35 10 35 -3 0 -2 6 3 13 4 6 8 17 10 22 1 6 5 21 9 34 5 16 4 22 -3 18 -9
-6 -23 -53 -27 -89 -1 -3 -4 -10 -8 -14 -5 -4 -8 -15 -8 -24 0 -9 -6 -24 -13
-35 -11 -14 -16 -15 -22 -5 -5 9 -4 11 3 6 16 -10 15 6 0 24 -11 12 -10 12 2
3 13 -10 15 0 16 78 0 49 -3 85 -6 78 -5 -7 -10 -8 -14 -1 -3 5 1 12 9 16 8 3
15 13 15 23 0 14 -2 15 -9 4 -5 -8 -11 -9 -15 -3 -3 5 1 12 9 16 8 3 15 13 15
23 0 14 -2 15 -9 4 -5 -8 -11 -9 -15 -3 -3 5 1 12 9 16 8 3 15 13 15 23 0 14
-2 15 -9 4 -5 -8 -11 -9 -15 -3 -3 5 1 12 9 16 8 3 15 13 15 23 0 15 -2 16
-10 3 -5 -8 -10 -10 -10 -5 1 17 25 43 45 46 10 2 48 4 82 5 46 0 63 -3 63
-13z m-180 -233 c0 -5 -2 -10 -4 -10 -3 0 -8 5 -11 10 -3 6 -1 10 4 10 6 0 11
-4 11 -10z m2773 -346 c225 1 411 -3 414 -8 9 -15 10 -86 0 -86 -4 0 -5 -6 -1
-12 12 -19 12 -48 1 -48 -5 0 -4 -7 3 -15 10 -12 10 -15 0 -15 -9 0 -9 -4 1
-17 10 -11 10 -14 2 -9 -8 4 -13 1 -13 -8 0 -9 6 -16 13 -17 10 0 10 -2 0 -6
-7 -2 -13 -11 -13 -19 0 -9 5 -13 13 -9 6 4 5 1 -3 -7 -8 -7 -16 -22 -17 -33
0 -11 -5 -36 -9 -55 -4 -20 -3 -32 2 -27 9 9 11 14 13 47 0 11 4 20 9 20 4 0
7 -146 7 -324 0 -214 -3 -322 -10 -318 -5 4 -50 7 -100 7 -73 1 -90 3 -87 15
2 13 0 13 -10 0 -11 -13 -78 -15 -508 -14 -438 1 -497 -1 -514 -15 -14 -12
-17 -12 -11 -2 6 11 4 13 -8 8 -21 -8 -33 11 -18 26 9 9 11 7 6 -8 -5 -15 -4
-16 3 -5 5 8 9 45 8 83 -1 37 1 71 4 75 6 10 141 47 154 44 5 -2 12 1 15 6 3
5 29 22 56 37 72 42 156 130 188 197 56 121 61 289 12 412 -15 37 -28 73 -29
79 -1 7 -5 18 -10 25 -7 11 -4 12 10 4 11 -5 186 -9 427 -8z m-2773 -34 c0 -5
-5 -10 -11 -10 -5 0 -7 5 -4 10 3 6 8 10 11 10 2 0 4 -4 4 -10z m1818 -34 c18
-4 50 -14 72 -22 32 -13 39 -20 35 -38 -12 -56 -13 -84 -1 -80 8 3 11 -26 10
-106 0 -60 3 -110 6 -110 4 0 6 67 6 149 0 91 -4 147 -10 144 -5 -3 -6 -1 -2
5 11 19 44 -8 66 -54 39 -79 14 -217 -45 -248 -11 -6 -22 -14 -25 -17 -5 -6
-94 -39 -106 -39 -3 0 -2 10 1 23 6 21 6 21 -11 -3 -9 -14 -19 -27 -20 -29 -5
-6 -266 -10 -301 -4 -18 3 -31 9 -28 13 3 5 0 10 -6 12 -9 3 -12 108 -10 349
l1 66 168 -2 c92 -2 182 -6 200 -9z m-1812 -118 c-10 -5 -20 -7 -23 -4 -4 3
-1 6 7 6 10 0 10 3 -1 17 -13 15 -12 15 10 3 22 -11 23 -13 7 -22z m1069 -290
l0 -293 65 -12 c63 -11 116 -17 250 -29 36 -3 71 -10 78 -16 8 -7 12 -7 12 0
0 14 290 15 306 1 8 -7 15 -6 20 2 5 8 3 10 -7 4 -8 -5 -10 -4 -6 0 8 10 16
11 92 20 l51 5 -1 -65 c-1 -71 -7 -84 -30 -65 -10 8 -15 9 -15 1 0 -6 5 -11
10 -11 6 0 10 -6 10 -12 0 -10 -82 -13 -375 -13 -340 0 -410 4 -357 18 9 3 5
4 -9 3 -15 -1 -34 -7 -42 -15 -12 -10 -21 -10 -38 -1 -12 7 -19 8 -16 2 4 -5
-15 -9 -46 -8 l-52 1 1 270 c2 266 2 271 27 323 14 30 33 82 43 118 10 35 21
64 24 64 3 0 5 -132 5 -292z m-1078 107 c0 -8 -4 -12 -9 -9 -5 3 -6 10 -3 15
9 13 12 11 12 -6z m3 -85 c0 -5 -2 -10 -4 -10 -3 0 -8 5 -11 10 -3 6 -1 10 4
10 6 0 11 -4 11 -10z m-9 -373 c4 -54 4 -89 -1 -98 -7 -11 -60 31 -60 47 0 6
-11 21 -25 34 -13 12 -23 26 -21 29 7 11 106 -1 107 -12z m-1224 -1380 c0 -8
-6 -14 -14 -14 -17 0 -17 14 0 20 6 3 12 6 13 6 0 1 1 -5 1 -12z"/>
<path d="M2930 4778 c0 -3 9 -6 20 -5 11 1 20 5 20 9 0 3 -9 6 -20 5 -11 -1
-20 -5 -20 -9z"/>
<path d="M2986 4772 c-3 -5 0 -9 7 -9 20 -1 66 -11 75 -17 5 -3 9 0 9 7 0 7
-12 13 -26 13 -14 1 -33 4 -42 8 -10 4 -19 3 -23 -2z"/>
<path d="M4746 4756 c-16 -13 -24 -26 -19 -29 9 -6 59 41 51 48 -3 3 -17 -6
-32 -19z"/>
<path d="M3090 4748 c0 -6 3 -8 7 -5 3 4 12 2 20 -5 7 -6 16 -8 20 -5 3 3 18
0 34 -8 34 -18 42 -19 37 -3 -2 6 -14 13 -26 15 -55 8 -62 10 -68 16 -11 11
-24 8 -24 -5z"/>
<path d="M3223 4720 c2 -8 12 -14 21 -14 9 1 16 -2 16 -7 0 -5 5 -9 11 -9 8 0
8 5 -1 15 -7 8 -17 12 -22 9 -6 -4 -15 0 -20 7 -8 12 -9 11 -5 -1z"/>
<path d="M4672 4685 c-18 -19 -29 -36 -25 -38 5 -3 23 10 41 28 18 19 29 36
25 38 -5 3 -23 -10 -41 -28z"/>
<path d="M3297 4689 c6 -6 17 -11 24 -12 8 -2 19 -6 26 -10 6 -4 15 -3 18 3 4
6 3 10 -2 9 -4 -1 -21 3 -36 9 -35 15 -44 15 -30 1z"/>
<path d="M3374 4658 c-5 -8 -2 -9 9 -5 10 3 17 2 17 -4 0 -6 5 -7 11 -3 8 4 7
9 -2 15 -19 12 -27 11 -35 -3z"/>
<path d="M3430 4641 c0 -5 7 -11 15 -15 8 -3 15 -1 15 3 0 5 -7 11 -15 15 -8
3 -15 1 -15 -3z"/>
<path d="M4602 4615 c-12 -13 -19 -26 -15 -28 5 -3 19 5 31 18 12 13 19 26 15
28 -5 3 -19 -5 -31 -18z"/>
<path d="M3470 4620 c0 -5 5 -10 10 -10 6 0 10 5 10 10 0 6 -4 10 -10 10 -5 0
-10 -4 -10 -10z"/>
<path d="M4542 4556 c-12 -14 -19 -27 -14 -30 5 -3 19 8 31 24 26 36 15 39
-17 6z"/>
<path d="M4482 4495 c-12 -13 -19 -26 -15 -28 5 -3 19 5 31 18 12 13 19 26 15
28 -5 3 -19 -5 -31 -18z"/>
<path d="M4426 4435 c-15 -12 -24 -25 -19 -28 9 -5 59 40 52 47 -2 3 -17 -6
-33 -19z"/>
<path d="M3810 4435 c0 -9 4 -14 9 -10 6 3 21 -7 35 -22 14 -15 26 -24 26 -20
0 5 6 2 14 -5 26 -25 56 -48 62 -48 4 0 17 -12 30 -27 13 -16 24 -24 24 -20 0
4 16 -9 35 -30 19 -21 35 -33 35 -28 1 6 7 -1 15 -15 10 -17 14 -20 15 -9 0 9
-7 22 -15 29 -8 7 -15 9 -15 6 0 -4 -14 9 -31 29 -17 19 -35 32 -40 29 -5 -3
-9 -1 -9 5 0 14 -116 102 -124 94 -3 -4 -6 -1 -6 5 0 6 -13 20 -30 32 -26 18
-30 19 -30 5z"/>
<path d="M4352 4365 c-18 -19 -29 -36 -25 -38 5 -3 23 10 41 28 18 19 29 36
25 38 -5 3 -23 -10 -41 -28z"/>
<path d="M4282 4295 c-12 -13 -19 -26 -15 -28 5 -3 19 5 31 18 12 13 19 26 15
28 -5 3 -19 -5 -31 -18z"/>
<path d="M4222 4236 c-12 -14 -19 -27 -14 -30 5 -3 19 8 31 24 26 36 15 39
-17 6z"/>
<path d="M4120 4191 c0 -5 7 -14 15 -19 14 -7 12 -12 -10 -34 -14 -15 -22 -29
-16 -32 5 -4 14 1 19 9 5 9 17 18 28 19 10 2 18 9 16 15 -1 7 5 19 13 28 9 8
13 18 10 22 -4 3 -11 -2 -16 -12 -12 -21 -23 -22 -43 -1 -9 8 -16 11 -16 5z
m44 -39 c3 -5 -1 -9 -9 -9 -8 0 -12 4 -9 9 3 4 7 8 9 8 2 0 6 -4 9 -8z"/>
<path d="M4188 4123 c6 -2 9 -10 6 -15 -4 -7 -2 -8 4 -4 7 4 12 2 12 -5 0 -12
17 -32 88 -105 17 -19 32 -38 32 -43 0 -6 8 -15 18 -20 9 -6 14 -11 10 -11 -9
0 37 -50 46 -50 3 0 -20 33 -50 73 -31 39 -61 71 -65 70 -9 -3 -13 13 -9 32 1
5 -1 7 -5 3 -8 -7 -33 16 -58 55 -9 15 -23 27 -30 26 -9 0 -9 -2 1 -6z"/>
<path d="M4062 4076 c-12 -14 -19 -27 -14 -30 5 -3 19 8 31 24 26 36 15 39
-17 6z"/>
<path d="M4002 4015 c-12 -13 -19 -26 -15 -28 5 -3 19 5 31 18 12 13 19 26 15
28 -5 3 -19 -5 -31 -18z"/>
<path d="M3946 3955 c-15 -12 -24 -25 -19 -28 9 -5 59 40 52 47 -2 3 -17 -6
-33 -19z"/>
<path d="M2595 3950 c-2 -3 13 -6 33 -7 20 0 52 -2 70 -6 17 -3 32 -1 32 4 0
5 -15 10 -32 10 -18 1 -48 2 -66 4 -18 1 -34 -1 -37 -5z"/>
<path d="M2745 3939 c-4 -5 4 -8 17 -8 26 1 63 -7 78 -16 6 -3 10 -1 10 4 0 6
-3 12 -7 12 -5 1 -17 3 -28 5 -11 1 -30 5 -42 8 -13 2 -25 1 -28 -5z"/>
<path d="M2860 3923 c0 -5 6 -10 13 -10 6 0 20 -4 30 -8 9 -4 17 -3 17 2 0 5
-6 10 -12 10 -7 0 -21 4 -30 8 -10 4 -18 3 -18 -2z"/>
<path d="M3882 3895 c-12 -13 -19 -26 -15 -28 5 -3 19 5 31 18 12 13 19 26 15
28 -5 3 -19 -5 -31 -18z"/>
<path d="M2930 3901 c0 -6 6 -11 14 -11 8 0 21 -3 30 -6 9 -3 16 -2 16 3 0 5
-6 10 -12 10 -7 0 -21 4 -30 8 -11 4 -18 3 -18 -4z"/>
<path d="M3003 3883 c9 -14 47 -24 47 -12 0 5 -4 9 -9 9 -5 0 -17 3 -27 7 -11
4 -15 3 -11 -4z"/>
<path d="M3060 3858 c0 -6 3 -8 7 -5 3 4 12 2 20 -4 8 -7 13 -8 13 -1 0 5 -7
13 -16 16 -22 8 -24 8 -24 -6z"/>
<path d="M3831 3846 c-9 -11 -9 -16 1 -22 7 -4 10 -4 6 1 -4 4 0 14 10 21 9 7
12 14 6 14 -6 0 -17 -6 -23 -14z"/>
<path d="M4407 3847 c32 -51 69 -103 76 -105 4 -2 5 -8 1 -13 -3 -5 0 -9 6 -9
6 0 9 -4 5 -9 -3 -6 3 -14 12 -20 10 -6 14 -11 9 -11 -5 0 -2 -8 6 -17 9 -10
18 -27 19 -37 4 -21 29 -35 29 -16 0 6 -4 8 -10 5 -6 -3 -10 5 -10 18 0 14 -7
28 -16 31 -8 3 -13 9 -11 13 4 7 -56 109 -82 139 -5 7 -7 15 -3 20 4 4 1 4 -5
0 -8 -4 -13 -1 -13 8 0 9 -5 16 -10 16 -7 0 -8 -5 -3 -13z"/>
<path d="M3110 3840 c0 -6 4 -9 9 -6 5 4 12 1 14 -4 3 -6 4 -5 3 2 -3 15 -26
23 -26 8z"/>
<path d="M3150 3820 c0 -5 5 -10 10 -10 6 0 10 5 10 10 0 6 -4 10 -10 10 -5 0
-10 -4 -10 -10z"/>
<path d="M3180 3811 c0 -5 7 -11 15 -15 8 -3 15 -1 15 3 0 5 -7 11 -15 15 -8
3 -15 1 -15 -3z"/>
<path d="M3786 3795 c-15 -12 -24 -25 -19 -28 9 -5 59 40 52 47 -2 3 -17 -6
-33 -19z"/>
<path d="M3712 3725 c-18 -19 -29 -36 -25 -38 5 -3 23 10 41 28 18 19 29 36
25 38 -5 3 -23 -10 -41 -28z"/>
<path d="M3642 3655 c-12 -13 -19 -26 -15 -28 5 -3 19 5 31 18 12 13 19 26 15
28 -5 3 -19 -5 -31 -18z"/>
<path d="M2594 3549 c-2 -3 21 -5 51 -5 30 1 55 -2 55 -6 0 -5 12 -8 28 -7 29
1 66 -6 82 -16 6 -3 10 -1 10 4 0 6 -7 11 -17 11 -9 0 -13 3 -9 7 4 4 85 7
181 8 95 0 176 2 179 6 3 3 -121 5 -275 5 -155 -1 -283 -4 -285 -7z"/>
<path d="M3170 3550 c0 -7 76 -7 84 0 3 3 -15 6 -39 6 -25 1 -45 -2 -45 -6z"/>
<path d="M3270 3550 c0 -7 216 -7 224 0 3 3 -47 6 -110 6 -62 0 -114 -2 -114
-6z"/>
<path d="M4620 3462 c0 -4 6 -16 14 -27 7 -11 14 -23 15 -28 3 -28 15 -57 22
-57 9 0 1 28 -14 48 -5 6 -7 12 -3 12 4 0 0 14 -9 30 -15 29 -25 38 -25 22z"/>
<path d="M4674 3328 c1 -7 8 -23 14 -35 7 -13 10 -23 6 -23 -3 0 -1 -7 6 -15
7 -8 9 -15 5 -15 -4 0 -2 -6 4 -13 6 -8 8 -17 4 -20 -3 -4 -1 -7 5 -7 14 0 16
13 5 24 -5 4 -9 12 -9 17 -1 5 -2 10 -4 12 -3 3 -18 64 -19 80 -1 4 -5 7 -10
7 -5 0 -8 -6 -7 -12z"/>
<path d="M4723 3175 c0 -8 4 -12 9 -9 4 3 8 9 8 15 0 5 -4 9 -8 9 -5 0 -9 -7
-9 -15z"/>
<path d="M4730 3136 c0 -8 5 -18 10 -21 6 -4 8 -11 5 -16 -4 -5 -1 -9 5 -9 8
0 9 7 5 18 -4 9 -8 23 -8 30 -1 17 -17 15 -17 -2z"/>
<path d="M4753 3057 c0 -15 3 -27 6 -27 4 0 8 -11 9 -25 1 -14 3 -36 4 -50 1
-14 6 -25 11 -25 5 0 6 12 3 28 -4 15 -8 42 -11 59 -2 18 -8 40 -13 49 -8 14
-9 12 -9 -9z"/>
<path d="M3918 2825 c2 -14 9 -28 15 -32 7 -4 8 0 4 11 -4 10 -7 24 -7 32 0 8
-4 14 -9 14 -4 0 -6 -11 -3 -25z"/>
<path d="M3930 2760 c0 -19 3 -21 12 -12 9 9 9 15 0 24 -9 9 -12 7 -12 -12z"/>
<path d="M3118 3131 c-21 -21 -35 -41 -32 -44 5 -5 84 70 84 80 0 10 -20 -4
-52 -36z"/>
<path d="M1764 3111 c4 -6 0 -14 -8 -17 -9 -3 -16 -11 -16 -16 0 -5 -9 -22
-20 -38 -11 -15 -17 -30 -13 -34 3 -3 0 -6 -7 -6 -7 0 -10 -3 -7 -6 3 -4 2
-15 -4 -25 -6 -11 -6 -19 0 -19 8 0 25 46 19 53 -2 1 3 9 10 17 35 42 60 90
50 96 -7 4 -8 3 -4 -5z"/>
<path d="M2140 3009 c0 -5 5 -7 10 -4 6 3 10 8 10 11 0 2 -4 4 -10 4 -5 0 -10
-5 -10 -11z"/>
<path d="M2160 2997 c0 -12 47 -57 53 -51 6 6 -3 17 -36 43 -9 7 -17 11 -17 8z"/>
<path d="M1635 2330 c3 -5 8 -10 11 -10 2 0 4 5 4 10 0 6 -5 10 -11 10 -5 0
-7 -4 -4 -10z"/>
<path d="M1640 2306 c0 -2 7 -19 15 -37 11 -27 14 -30 15 -12 0 12 -5 25 -10
28 -6 4 -8 11 -5 16 4 5 1 9 -4 9 -6 0 -11 -2 -11 -4z"/>
<path d="M4760 2160 c0 -5 5 -10 10 -10 6 0 10 5 10 10 0 6 -4 10 -10 10 -5 0
-10 -4 -10 -10z"/>
<path d="M4756 2125 c-3 -8 -1 -15 4 -15 6 0 10 7 10 15 0 8 -2 15 -4 15 -2 0
-6 -7 -10 -15z"/>
<path d="M4741 2054 c-12 -45 -10 -66 4 -45 3 6 4 11 1 11 -3 0 1 18 9 40 8
22 10 40 6 40 -5 0 -14 -21 -20 -46z"/>
<path d="M4723 1984 c3 -4 0 -19 -8 -35 -18 -33 -18 -39 -4 -39 5 0 7 5 4 10
-3 6 -2 10 3 10 5 0 9 6 9 13 0 6 4 20 8 30 5 11 3 17 -6 17 -7 0 -10 -3 -6
-6z"/>
<path d="M4689 1882 c-2 -30 -3 -34 -17 -59 -7 -13 -10 -23 -6 -23 4 0 -1 -9
-11 -20 -10 -11 -15 -23 -12 -27 4 -3 2 -12 -4 -20 -9 -9 -8 -13 0 -13 10 0
15 14 12 33 -1 4 5 15 14 23 8 9 15 23 15 33 0 9 5 22 12 29 7 7 8 12 4 12 -5
0 -3 7 4 15 10 12 10 19 2 27 -9 9 -12 7 -13 -10z"/>
<path d="M3692 1795 c-7 -8 -11 -16 -10 -18 2 -2 -9 -17 -25 -33 -15 -16 -28
-33 -30 -39 -1 -5 -17 -24 -35 -42 -18 -18 -30 -38 -27 -43 7 -12 16 -13 14
-2 -3 19 2 33 11 27 6 -3 10 -2 10 4 0 6 10 19 22 31 12 11 18 20 13 20 -4 0
3 10 16 23 31 28 73 87 62 87 -4 -1 -14 -7 -21 -15z"/>
<path d="M4622 1703 c1 -5 -3 -18 -10 -30 -7 -13 -9 -23 -4 -23 5 0 14 11 20
25 15 32 15 35 2 35 -5 0 -9 -3 -8 -7z"/>
<path d="M3510 2330 c-6 -11 -8 -20 -4 -20 3 0 2 -6 -3 -12 -16 -20 -25 -68
-13 -68 5 0 9 3 9 8 -1 4 0 9 1 12 3 10 11 45 12 58 1 6 4 12 8 12 4 0 7 7 7
15 0 20 -4 19 -17 -5z"/>
<path d="M3471 2211 c-7 -5 -11 -15 -9 -22 3 -10 8 -7 17 9 13 24 12 26 -8 13z"/>
<path d="M3447 2163 c-10 -10 -8 -23 4 -23 5 0 8 4 5 9 -4 5 0 12 6 14 7 3 8
6 2 6 -6 1 -14 -2 -17 -6z"/>
<path d="M3050 1740 c-13 -8 -12 -10 3 -10 9 0 17 5 17 10 0 12 -1 12 -20 0z"/>
<path d="M3432 1726 c10 -7 14 -17 10 -21 -4 -5 -1 -5 6 -1 10 6 10 11 1 22
-6 8 -17 14 -23 14 -6 0 -3 -7 6 -14z"/>
<path d="M3020 1721 c0 -7 -5 -9 -12 -5 -7 5 -8 3 -3 -5 5 -9 10 -10 18 -2 6
6 8 14 4 18 -4 3 -7 1 -7 -6z"/>
<path d="M2980 1699 c0 -5 -5 -7 -12 -3 -7 4 -8 3 -4 -4 4 -6 13 -9 21 -6 8 4
12 10 9 15 -7 12 -14 11 -14 -2z"/>
<path d="M3470 1680 c6 -11 15 -18 21 -14 6 4 6 11 -2 20 -17 21 -31 17 -19
-6z"/>
<path d="M2926 1681 c-3 -5 -21 -12 -41 -15 -19 -4 -37 -12 -41 -18 -5 -7 -2
-9 8 -5 9 3 34 11 57 18 23 7 41 16 41 21 0 11 -17 10 -24 -1z"/>
<path d="M2810 1640 c0 -5 5 -10 10 -10 6 0 10 5 10 10 0 6 -4 10 -10 10 -5 0
-10 -4 -10 -10z"/>
<path d="M3549 5148 c-5 -9 -4 -318 1 -318 3 0 6 72 6 160 0 139 -1 169 -7
158z"/>
<path d="M5126 5141 c-4 -5 -2 -12 3 -15 5 -4 12 -2 15 3 4 5 2 12 -3 15 -5 4
-12 2 -15 -3z"/>
<path d="M5082 5095 c-12 -13 -19 -26 -15 -28 5 -3 19 5 31 18 12 13 19 26 15
28 -5 3 -19 -5 -31 -18z"/>
<path d="M60 5094 c0 -6 6 -17 14 -23 11 -9 16 -9 22 1 4 7 4 10 -1 6 -4 -4
-14 0 -21 10 -7 9 -14 12 -14 6z"/>
<path d="M100 5052 c0 -16 28 -34 34 -23 4 6 -3 15 -14 21 -11 6 -20 7 -20 2z"/>
<path d="M5022 5036 c-12 -14 -19 -27 -14 -30 5 -3 19 8 31 24 26 36 15 39
-17 6z"/>
<path d="M152 5006 c10 -7 14 -17 10 -21 -4 -5 -1 -5 6 -1 10 6 10 11 1 22 -6
8 -17 14 -23 14 -6 0 -3 -7 6 -14z"/>
<path d="M4962 4975 c-12 -13 -19 -26 -15 -28 5 -3 19 5 31 18 12 13 19 26 15
28 -5 3 -19 -5 -31 -18z"/>
<path d="M180 4972 c0 -16 28 -34 34 -23 4 6 -3 15 -14 21 -11 6 -20 7 -20 2z"/>
<path d="M232 4926 c10 -7 14 -17 10 -21 -4 -5 -1 -5 6 -1 10 6 10 11 1 22 -6
8 -17 14 -23 14 -6 0 -3 -7 6 -14z"/>
<path d="M4906 4915 c-15 -12 -24 -25 -19 -28 9 -5 59 40 52 47 -2 3 -17 -6
-33 -19z"/>
<path d="M270 4880 c6 -11 15 -18 21 -14 6 4 6 11 -2 20 -17 21 -31 17 -19 -6z"/>
<path d="M392 4766 c10 -7 14 -17 10 -21 -4 -5 -1 -5 6 -1 10 6 10 11 1 22 -6
8 -17 14 -23 14 -6 0 -3 -7 6 -14z"/>
<path d="M2033 4750 c-13 -5 -23 -7 -23 -3 0 3 -7 0 -15 -7 -8 -7 -15 -9 -15
-5 0 4 -6 2 -13 -4 -8 -6 -17 -8 -20 -4 -4 3 -7 1 -7 -4 0 -6 -8 -10 -17 -8
-10 1 -27 -2 -38 -8 -11 -6 -26 -12 -34 -13 -7 -2 -19 -8 -25 -15 -8 -9 -6 -9
12 0 12 6 22 9 22 5 0 -3 6 -1 13 5 8 6 17 8 20 4 4 -3 7 -1 7 4 0 6 8 10 18
8 9 -1 26 2 37 8 11 6 26 10 33 9 6 -2 12 1 12 5 0 5 9 10 20 11 43 4 50 6 50
14 0 10 -8 9 -37 -2z"/>
<path d="M430 4720 c6 -11 15 -18 21 -14 6 4 6 11 -2 20 -17 21 -31 17 -19 -6z"/>
<path d="M460 4694 c0 -6 6 -17 14 -23 11 -9 16 -9 22 1 4 7 4 10 -1 6 -4 -4
-14 0 -21 10 -7 9 -14 12 -14 6z"/>
<path d="M510 4640 c6 -11 15 -18 21 -14 6 4 6 11 -2 20 -17 21 -31 17 -19 -6z"/>
<path d="M540 4614 c0 -6 6 -17 14 -23 11 -9 16 -9 22 1 4 7 4 10 -1 6 -4 -4
-14 0 -21 10 -7 9 -14 12 -14 6z"/>
<path d="M580 4572 c0 -16 28 -34 34 -23 4 6 -3 15 -14 21 -11 6 -20 7 -20 2z"/>
<path d="M1558 4573 c-1 -5 -32 -23 -68 -41 -79 -40 -106 -59 -96 -69 4 -4 12
0 17 10 6 9 15 14 21 11 7 -4 8 -2 4 4 -6 11 5 15 31 11 3 0 10 6 15 15 5 9
13 14 19 11 5 -4 9 -1 9 5 0 6 5 8 10 5 6 -3 10 -1 10 4 0 6 6 11 14 11 7 0
19 7 26 15 8 9 8 15 2 15 -6 0 -12 -3 -14 -7z"/>
<path d="M632 4526 c10 -7 14 -17 10 -21 -4 -5 -1 -5 6 -1 10 6 10 11 1 22 -6
8 -17 14 -23 14 -6 0 -3 -7 6 -14z"/>
<path d="M660 4492 c0 -16 28 -34 34 -23 4 6 -3 15 -14 21 -11 6 -20 7 -20 2z"/>
<path d="M712 4446 c10 -7 14 -17 10 -21 -4 -5 -1 -5 6 -1 10 6 10 11 1 22 -6
8 -17 14 -23 14 -6 0 -3 -7 6 -14z"/>
<path d="M1360 4449 c0 -5 -4 -8 -8 -5 -11 7 -56 -34 -47 -42 4 -4 11 1 16 11
6 9 14 15 18 12 5 -2 16 4 26 15 10 12 13 20 7 20 -7 0 -12 -5 -12 -11z"/>
<path d="M1604 4019 c1 -346 -2 -432 -12 -438 -11 -6 -10 -10 2 -20 13 -11 16
-11 17 0 5 48 3 889 -2 889 -3 0 -5 -194 -5 -431z"/>
<path d="M750 4400 c6 -11 15 -18 21 -14 6 4 6 11 -2 20 -17 21 -31 17 -19 -6z"/>
<path d="M1271 4391 c-7 -11 -15 -20 -19 -18 -13 4 -54 -31 -43 -37 5 -4 15 3
21 14 6 11 15 18 19 16 10 -7 47 32 38 40 -3 3 -10 -4 -16 -15z"/>
<path d="M780 4374 c0 -6 6 -17 14 -23 11 -9 16 -9 22 1 4 7 4 10 -1 6 -4 -4
-14 0 -21 10 -7 9 -14 12 -14 6z"/>
<path d="M830 4320 c6 -11 15 -18 21 -14 6 4 6 11 -2 20 -17 21 -31 17 -19 -6z"/>
<path d="M1180 4319 c0 -5 -4 -8 -9 -5 -5 4 -11 2 -13 -3 -1 -4 -24 -27 -51
-49 -26 -23 -47 -45 -47 -49 0 -4 -4 -8 -9 -8 -5 0 -19 -11 -30 -24 -12 -13
-21 -19 -21 -13 0 7 -4 12 -10 12 -5 0 -7 -6 -4 -13 2 -7 -4 -22 -16 -32 -22
-20 -26 -35 -10 -35 5 0 9 6 7 13 -1 6 4 11 11 9 8 -1 11 2 7 8 -3 5 -1 10 6
10 6 0 39 28 73 62 33 35 65 62 69 60 5 -1 6 2 2 8 -3 5 -3 10 2 10 14 0 69
49 56 50 -7 0 -13 -5 -13 -11z"/>
<path d="M860 4294 c0 -6 6 -17 14 -23 11 -9 16 -9 22 1 4 7 4 10 -1 6 -4 -4
-14 0 -21 10 -7 9 -14 12 -14 6z"/>
<path d="M900 4252 c0 -16 28 -34 34 -23 4 6 -3 15 -14 21 -11 6 -20 7 -20 2z"/>
<path d="M952 4206 c10 -7 14 -17 10 -21 -4 -5 -1 -5 6 -1 10 6 10 11 1 22 -6
8 -17 14 -23 14 -6 0 -3 -7 6 -14z"/>
<path d="M1020 4134 c0 -6 6 -17 14 -23 11 -9 16 -9 22 1 4 7 4 10 -1 6 -4 -4
-14 0 -21 10 -7 9 -14 12 -14 6z"/>
<path d="M925 4090 c-3 -5 -3 -10 0 -10 3 0 0 -6 -7 -14 -7 -8 -17 -11 -22 -8
-5 3 -6 0 -1 -7 5 -9 13 -7 31 10 13 12 21 26 18 30 -7 12 -11 11 -19 -1z"/>
<path d="M1060 4092 c0 -16 28 -34 34 -23 4 6 -3 15 -14 21 -11 6 -20 7 -20 2z"/>
<path d="M1112 4046 c10 -7 14 -17 10 -21 -4 -5 -1 -5 6 -1 10 6 10 11 1 22
-6 8 -17 14 -23 14 -6 0 -3 -7 6 -14z"/>
<path d="M867 4017 c-10 -13 -33 -41 -52 -63 -19 -21 -38 -47 -41 -56 -3 -9
-18 -31 -35 -49 -34 -36 -32 -52 2 -20 13 12 19 21 13 21 -5 0 -1 5 9 11 9 5
17 17 17 24 0 8 5 15 12 15 6 0 8 3 5 6 -4 4 3 15 15 25 11 11 18 19 14 19 -3
0 10 16 30 35 19 19 34 40 32 45 -2 6 -11 0 -21 -13z"/>
<path d="M1140 4012 c0 -16 28 -34 34 -23 4 6 -3 15 -14 21 -11 6 -20 7 -20 2z"/>
<path d="M1192 3966 c10 -7 14 -17 10 -21 -4 -5 -1 -5 6 -1 10 6 10 11 1 22
-6 8 -17 14 -23 14 -6 0 -3 -7 6 -14z"/>
<path d="M2409 3945 c-3 -2 -22 -5 -43 -7 -20 -1 -39 -5 -42 -9 -2 -4 18 -4
44 -1 26 2 55 5 65 5 23 2 22 17 -1 17 -10 0 -21 -2 -23 -5z"/>
<path d="M1230 3920 c6 -11 15 -18 21 -14 6 4 6 11 -2 20 -17 21 -31 17 -19
-6z"/>
<path d="M2270 3921 c-8 -6 -18 -8 -22 -5 -4 3 -20 -2 -36 -10 -16 -8 -32 -12
-36 -9 -3 4 -6 1 -6 -5 0 -15 2 -15 37 0 30 12 57 19 86 19 9 0 17 4 17 10 0
12 -21 11 -40 0z"/>
<path d="M1260 3894 c0 -6 6 -17 14 -23 11 -9 16 -9 22 1 4 7 4 10 -1 6 -4 -4
-14 0 -21 10 -7 9 -14 12 -14 6z"/>
<path d="M2128 3883 c-10 -2 -18 -8 -18 -13 0 -10 38 -1 46 11 5 9 1 10 -28 2z"/>
<path d="M2076 3863 c-11 -3 -26 -12 -34 -20 -8 -7 -19 -12 -26 -10 -6 2 -17
-2 -24 -10 -8 -7 -17 -11 -22 -8 -4 3 -10 -2 -14 -10 -7 -19 -9 -20 59 15 32
17 65 30 72 30 7 0 13 5 13 10 0 6 -1 9 -2 9 -2 -1 -12 -4 -22 -6z"/>
<path d="M1300 3852 c0 -16 28 -34 34 -23 4 6 -3 15 -14 21 -11 6 -20 7 -20 2z"/>
<path d="M1352 3806 c10 -7 14 -17 10 -21 -4 -5 -1 -5 6 -1 10 6 10 11 1 22
-6 8 -17 14 -23 14 -6 0 -3 -7 6 -14z"/>
<path d="M700 3790 c-13 -8 -12 -10 3 -10 9 0 17 5 17 10 0 12 -1 12 -20 0z"/>
<path d="M1897 3774 c-21 -14 -35 -29 -31 -32 4 -4 9 -1 11 6 3 6 11 12 19 12
8 0 14 5 14 10 0 6 7 10 15 10 8 0 15 5 15 10 0 14 0 14 -43 -16z"/>
<path d="M1390 3760 c6 -11 15 -18 21 -14 6 4 6 11 -2 20 -17 21 -31 17 -19
-6z"/>
<path d="M672 3750 c-7 -11 -8 -20 -2 -20 5 0 14 9 20 20 6 11 7 20 3 20 -5 0
-14 -9 -21 -20z"/>
<path d="M1834 3736 c-3 -9 -9 -14 -13 -12 -3 2 -19 -6 -34 -18 -18 -15 -23
-23 -13 -23 8 0 18 7 20 14 3 8 10 12 15 9 10 -7 47 32 38 40 -4 4 -9 -1 -13
-10z"/>
<path d="M1420 3734 c0 -6 6 -17 14 -23 11 -9 16 -9 22 1 4 7 4 10 -1 6 -4 -4
-14 0 -21 10 -7 9 -14 12 -14 6z"/>
<path d="M650 3705 c0 -8 -4 -15 -10 -15 -5 0 -12 -11 -16 -25 -3 -14 -10 -25
-15 -25 -5 0 -8 -3 -7 -7 1 -5 -3 -18 -10 -30 -7 -13 -9 -23 -4 -23 5 0 17 19
28 43 10 23 24 48 31 55 13 13 18 42 8 42 -3 0 -5 -7 -5 -15z"/>
<path d="M1470 3680 c6 -11 15 -18 21 -14 6 4 6 11 -2 20 -17 21 -31 17 -19
-6z"/>
<path d="M1500 3654 c0 -6 6 -17 14 -23 11 -9 16 -9 22 1 4 7 4 10 -1 6 -4 -4
-14 0 -21 10 -7 9 -14 12 -14 6z"/>
<path d="M1540 3612 c0 -16 28 -34 34 -23 4 6 -3 15 -14 21 -11 6 -20 7 -20 2z"/>
<path d="M4870 3551 c0 -4 63 -6 140 -6 77 0 140 2 140 5 0 3 -63 6 -140 6
-77 0 -140 -2 -140 -5z"/>
<path d="M550 3515 c-7 -9 -8 -15 -2 -15 5 0 12 7 16 15 3 8 4 15 2 15 -2 0
-9 -7 -16 -15z"/>
<path d="M2328 3524 c-4 -3 -12 -7 -20 -8 -62 -14 -78 -19 -78 -26 0 -3 14 -5
30 -2 17 2 30 7 30 11 0 4 10 7 21 8 23 2 35 10 27 18 -2 3 -7 2 -10 -1z"/>
<path d="M1640 3509 c0 -5 5 -7 10 -4 6 3 10 8 10 11 0 2 -4 4 -10 4 -5 0 -10
-5 -10 -11z"/>
<path d="M523 3460 c-6 -16 -8 -30 -3 -30 4 0 13 14 19 30 5 17 7 30 3 30 -4
0 -13 -13 -19 -30z"/>
<path d="M497 3400 c-3 -11 -2 -20 3 -20 4 0 10 9 13 20 3 11 2 20 -3 20 -4 0
-10 -9 -13 -20z"/>
<path d="M477 3350 c-3 -11 -2 -20 3 -20 4 0 10 9 13 20 3 11 2 20 -3 20 -4 0
-10 -9 -13 -20z"/>
<path d="M460 3296 c-5 -15 -10 -35 -10 -45 0 -9 -4 -21 -9 -26 -5 -6 -12 -23
-15 -40 -2 -16 -9 -45 -15 -63 -5 -18 -10 -35 -10 -37 -1 -3 -1 -6 -2 -7 -6
-21 -5 -37 2 -32 5 3 7 10 4 15 -4 5 -1 9 5 9 7 0 10 6 7 13 -2 6 0 22 4 35 5
12 11 33 13 45 3 12 14 51 25 86 20 64 21 99 1 47z"/>
<path d="M384 3008 c-1 -13 -4 -32 -7 -43 -3 -11 -6 -31 -6 -44 -1 -18 -4 -21
-14 -13 -11 9 -13 -8 -13 -93 0 -97 5 -121 21 -95 3 6 2 10 -3 10 -13 0 -10
33 3 43 6 4 4 11 -5 17 -13 9 -13 10 0 10 12 0 13 2 1 9 -9 6 -10 10 -2 12 11
4 21 57 24 127 1 12 5 22 11 22 5 0 7 3 3 6 -3 3 -2 17 3 30 7 17 6 24 -3 24
-6 0 -13 -10 -13 -22z m-14 -128 c0 -5 -2 -10 -4 -10 -3 0 -8 5 -11 10 -3 6
-1 10 4 10 6 0 11 -4 11 -10z"/>
<path d="M348 2693 c0 -5 -2 -26 -3 -48 -2 -22 -3 -44 -4 -50 -1 -6 -61 -10
-161 -9 -88 1 -162 -1 -164 -5 -3 -4 66 -6 152 -6 86 1 162 0 167 -2 6 -2 10
-54 9 -133 -1 -84 3 -127 9 -123 6 4 7 1 1 -8 -11 -18 -13 -99 -2 -99 5 0 8 8
6 18 -2 12 3 16 17 14 11 -2 16 1 10 5 -10 8 -12 21 -16 91 -1 17 -7 32 -13
32 -6 0 -5 4 3 9 10 6 10 10 1 16 -9 6 -9 10 1 16 12 7 12 9 0 9 -11 0 -11 3
0 17 8 9 9 14 4 11 -7 -5 -11 16 -10 60 l0 67 418 0 c230 0 420 2 422 6 3 3
-181 6 -408 7 -227 0 -417 1 -423 1 -6 1 -9 23 -8 56 1 30 0 55 -2 55 -2 0 -5
-3 -6 -7z m19 -418 c0 -8 -4 -12 -9 -9 -4 3 -8 9 -8 15 0 5 4 9 8 9 5 0 9 -7
9 -15z"/>
<path d="M375 2203 c4 -16 7 -38 8 -50 1 -11 6 -19 10 -16 5 3 5 19 1 36 -4
18 -7 38 -7 45 0 6 -5 12 -10 12 -5 0 -6 -12 -2 -27z"/>
<path d="M395 2120 c-3 -5 -1 -10 4 -10 6 0 11 5 11 10 0 6 -2 10 -4 10 -3 0
-8 -4 -11 -10z"/>
<path d="M397 2088 c6 -7 9 -21 8 -31 -2 -9 0 -15 5 -12 5 3 7 13 5 23 -2 9
-4 20 -4 25 -1 4 -6 7 -12 7 -8 0 -8 -4 -2 -12z"/>
<path d="M415 2013 c8 -20 13 -42 14 -60 1 -7 6 -13 11 -13 7 0 6 8 -1 23 -7
12 -12 23 -11 25 7 9 0 42 -9 42 -7 0 -8 -7 -4 -17z"/>
<path d="M443 1919 c2 -8 6 -19 9 -25 4 -6 9 -23 12 -38 3 -15 9 -33 15 -39 5
-7 9 -16 9 -22 0 -5 6 -11 14 -13 9 -2 8 0 -2 7 -8 6 -11 11 -6 11 5 0 3 6 -3
13 -6 8 -8 17 -4 20 3 4 2 7 -3 7 -5 0 -11 8 -12 18 -4 38 -9 53 -19 63 -9 9
-11 8 -10 -2z"/>
<path d="M502 1745 c6 -14 15 -25 19 -25 4 0 2 11 -4 25 -7 14 -15 25 -19 25
-4 0 -2 -11 4 -25z"/>
<path d="M2164 1698 c-4 -6 -3 -8 3 -5 6 4 16 0 23 -8 7 -8 15 -13 19 -11 3 3
24 -4 46 -14 46 -22 55 -24 55 -10 0 6 -3 9 -7 8 -13 -3 -113 36 -113 44 0 12
-18 9 -26 -4z"/>
<path d="M1642 1652 c-14 -17 -20 -34 -16 -47 7 -22 73 -95 83 -92 7 2 29 -15
60 -46 15 -15 20 -16 27 -5 4 7 4 10 0 7 -4 -4 -24 9 -46 28 -21 19 -41 34
-45 33 -9 -2 -66 61 -61 69 2 3 144 6 315 5 171 0 311 3 311 6 0 3 -142 6
-316 5 -174 0 -318 3 -320 7 -2 3 8 15 22 26 15 10 23 22 17 25 -5 3 -20 -6
-31 -21z"/>
<path d="M2325 1640 c3 -5 8 -10 11 -10 2 0 4 5 4 10 0 6 -5 10 -11 10 -5 0
-7 -4 -4 -10z"/>
<path d="M2374 1632 c4 -7 2 -12 -3 -12 -6 0 -11 -4 -11 -8 0 -4 9 -8 19 -8
11 0 17 4 15 8 -3 4 0 8 5 8 6 0 11 -4 11 -9 0 -6 15 -9 34 -8 23 1 32 6 28
15 -4 11 -6 11 -13 0 -7 -11 -9 -11 -9 1 0 11 -3 11 -17 0 -11 -10 -14 -10 -9
-1 4 7 2 12 -8 12 -8 0 -22 3 -32 7 -12 4 -15 3 -10 -5z"/>
<path d="M2487 1614 c6 -15 23 -19 23 -5 0 5 -7 11 -14 14 -10 4 -13 1 -9 -9z"/>
<path d="M2280 1611 c0 -3 16 -6 35 -7 19 0 35 3 35 7 0 4 -16 7 -35 7 -19 0
-35 -3 -35 -7z"/>
<path d="M3491 1570 c-13 -11 -18 -20 -12 -20 7 0 21 9 33 20 28 26 10 26 -21
0z"/>
<path d="M1546 1556 c-16 -13 -24 -26 -19 -29 9 -6 59 41 51 48 -3 3 -17 -6
-32 -19z"/>
<path d="M3592 1566 c10 -7 14 -17 10 -21 -4 -5 -1 -5 6 -1 10 6 10 11 1 22
-6 8 -17 14 -23 14 -6 0 -3 -7 6 -14z"/>
<path d="M3433 1514 c-9 -13 -20 -21 -25 -18 -4 3 -8 1 -8 -5 0 -6 -16 -18
-35 -27 -19 -9 -35 -20 -35 -25 0 -5 -7 -9 -15 -9 -8 0 -15 -5 -15 -10 0 -5
-3 -9 -7 -7 -5 1 -9 -1 -10 -5 -2 -5 -1 -8 2 -8 10 0 60 35 68 47 5 8 12 11
16 8 5 -2 26 12 49 33 22 20 43 38 47 39 14 3 14 10 0 10 -8 0 -22 -11 -32
-23z"/>
<path d="M3549 1533 c-1 -5 -2 -221 -3 -481 -1 -384 -4 -475 -15 -481 -11 -7
-11 -9 0 -13 17 -6 20 -196 4 -201 -5 -1 -155 -2 -333 -2 -178 1 -325 -1 -327
-4 -2 -4 147 -6 331 -6 218 0 334 -3 335 -10 1 -5 2 -78 3 -162 0 -83 4 -154
7 -157 3 -3 5 69 5 159 -1 103 3 165 9 166 6 0 81 1 167 2 86 1 159 4 162 7 3
4 -72 6 -167 5 l-172 -1 0 113 c0 86 3 112 13 108 6 -2 12 -1 12 4 0 5 11 12
25 15 14 4 25 11 25 16 0 13 -17 13 -22 1 -1 -5 -14 -12 -28 -16 l-25 -6 1
476 c0 414 -1 502 -7 468z"/>
<path d="M3630 1520 c6 -11 15 -18 21 -14 6 4 6 11 -2 20 -17 21 -31 17 -19
-6z"/>
<path d="M4520 1493 c-13 -27 -28 -51 -33 -54 -5 -3 -9 -14 -11 -23 -1 -10 -7
-21 -13 -24 -6 -4 -19 -24 -30 -44 -11 -21 -23 -35 -27 -33 -3 3 -4 2 -2 -1 2
-3 -7 -17 -20 -31 -13 -14 -22 -29 -19 -32 2 -4 -5 -13 -15 -21 -10 -8 -16
-18 -13 -23 6 -9 39 33 35 46 -1 4 3 7 8 7 6 0 10 5 10 11 0 6 11 20 25 31 14
11 23 23 20 27 -2 5 9 23 25 41 16 18 27 36 25 40 -3 4 2 13 10 20 8 7 15 18
15 25 0 7 7 16 16 19 9 4 14 9 10 13 -3 3 1 17 9 30 9 13 12 23 8 23 -5 0 -19
-21 -33 -47z"/>
<path d="M1472 1485 c-18 -19 -29 -36 -25 -38 5 -3 23 10 41 28 18 19 29 36
25 38 -5 3 -23 -10 -41 -28z"/>
<path d="M3660 1494 c0 -6 6 -17 14 -23 11 -9 16 -9 22 1 4 7 4 10 -1 6 -4 -4
-14 0 -21 10 -7 9 -14 12 -14 6z"/>
<path d="M1604 1375 c0 -63 2 -112 5 -109 8 8 8 224 1 224 -4 0 -6 -52 -6
-115z"/>
<path d="M640 1462 c0 -7 3 -12 8 -12 4 0 16 -19 27 -41 10 -23 25 -43 32 -46
7 -3 11 -9 8 -13 -2 -4 4 -15 15 -25 11 -10 17 -21 15 -25 -3 -4 2 -10 10 -14
22 -8 18 7 -7 34 -13 14 -23 27 -23 30 0 4 -8 14 -17 24 -10 10 -18 24 -18 32
0 8 -5 14 -11 14 -5 0 -8 4 -5 9 3 4 -3 16 -14 26 -12 10 -20 13 -20 7z"/>
<path d="M1807 1452 c-4 -6 18 -24 50 -43 95 -55 143 -78 143 -69 0 9 -62 40
-79 40 -6 0 -11 3 -11 8 0 4 -17 16 -37 27 -21 11 -43 26 -49 34 -7 9 -13 10
-17 3z"/>
<path d="M3710 1440 c6 -11 15 -18 21 -14 6 4 6 11 -2 20 -17 21 -31 17 -19
-6z"/>
<path d="M1402 1415 c-12 -13 -19 -26 -15 -28 5 -3 19 5 31 18 12 13 19 26 15
28 -5 3 -19 -5 -31 -18z"/>
<path d="M3740 1414 c0 -6 6 -17 14 -23 11 -9 16 -9 22 1 4 7 4 10 -1 6 -4 -4
-14 0 -21 10 -7 9 -14 12 -14 6z"/>
<path d="M3236 1385 c-11 -8 -17 -17 -14 -20 3 -3 12 1 21 9 8 8 18 12 22 8 5
-4 5 -1 1 6 -9 15 -7 15 -30 -3z"/>
<path d="M1349 1363 c-8 -10 -14 -22 -14 -26 0 -5 -13 -15 -28 -23 -15 -8 -25
-19 -21 -25 3 -5 18 3 32 18 46 48 65 73 56 73 -5 0 -16 -8 -25 -17z"/>
<path d="M3780 1372 c0 -16 28 -34 34 -23 4 6 -3 15 -14 21 -11 6 -20 7 -20 2z"/>
<path d="M3170 1353 c-14 -10 -31 -18 -39 -20 -8 -1 -17 -7 -21 -13 -4 -7 -10
-11 -14 -11 -22 3 -36 0 -36 -10 0 -5 4 -7 10 -4 5 3 20 8 32 10 12 3 24 8 27
12 3 5 13 9 21 11 8 2 17 8 18 13 2 5 8 7 13 3 5 -3 9 0 9 6 0 6 5 8 10 5 6
-3 10 -1 10 4 0 16 -12 14 -40 -6z"/>
<path d="M2010 1329 c0 -5 5 -7 10 -4 6 3 10 1 10 -6 0 -7 3 -9 7 -6 3 4 12 2
19 -4 6 -5 27 -14 46 -19 30 -8 31 -8 14 5 -10 8 -23 12 -27 9 -5 -3 -9 0 -9
7 0 7 -3 9 -6 6 -4 -3 -16 0 -28 8 -24 18 -36 19 -36 4z"/>
<path d="M3832 1326 c10 -7 14 -17 10 -21 -4 -5 -1 -5 6 -1 10 6 10 11 1 22
-6 8 -17 14 -23 14 -6 0 -3 -7 6 -14z"/>
<path d="M3030 1288 c0 -6 -3 -8 -7 -5 -3 4 -12 2 -20 -4 -7 -6 -13 -9 -13 -6
0 3 -15 1 -32 -4 -45 -14 -60 -17 -80 -18 -10 -1 -18 -6 -18 -12 0 -5 4 -8 8
-5 5 3 24 8 43 11 45 9 63 13 67 15 1 2 7 4 12 5 6 1 12 4 15 5 3 1 10 4 15 5
6 1 15 3 20 4 6 0 10 6 10 11 0 6 -4 10 -10 10 -5 0 -10 -5 -10 -12z"/>
<path d="M3870 1280 c6 -11 15 -18 21 -14 6 4 6 11 -2 20 -17 21 -31 17 -19
-6z"/>
<path d="M2140 1278 c0 -5 7 -8 15 -4 8 3 15 1 15 -5 0 -6 4 -8 9 -4 5 3 12 1
16 -5 9 -14 35 -13 35 2 0 6 -3 8 -6 5 -4 -3 -15 -2 -26 4 -29 16 -58 19 -58
7z"/>
<path d="M1242 1255 c-12 -13 -19 -26 -15 -28 5 -3 19 5 31 18 12 13 19 26 15
28 -5 3 -19 -5 -31 -18z"/>
<path d="M770 1265 c0 -3 10 -17 23 -30 12 -13 33 -39 47 -59 14 -19 31 -36
39 -36 7 0 -1 13 -18 29 -17 16 -31 33 -31 38 0 4 -12 20 -25 36 -23 26 -35
33 -35 22z"/>
<path d="M2245 1250 c4 -6 11 -8 16 -5 14 9 11 15 -7 15 -8 0 -12 -5 -9 -10z"/>
<path d="M3900 1254 c0 -6 6 -17 14 -23 11 -9 16 -9 22 1 4 7 4 10 -1 6 -4 -4
-14 0 -21 10 -7 9 -14 12 -14 6z"/>
<path d="M1604 935 c0 -173 3 -312 6 -309 7 7 7 624 0 624 -4 0 -6 -142 -6
-315z"/>
<path d="M2280 1242 c0 -13 101 -27 250 -35 l44 -3 1 -414 c1 -228 -1 -420 -2
-426 -4 -11 -102 -12 -121 0 -7 4 -12 2 -12 -5 0 -8 -4 -8 -15 1 -12 10 -15
10 -15 0 0 -9 -4 -9 -12 -2 -17 13 -71 12 -80 -2 -5 -7 -8 -5 -8 5 0 11 -10
16 -29 17 -24 0 -29 -3 -25 -16 5 -13 2 -13 -13 3 -10 11 -27 22 -38 23 -51 5
-61 8 -68 17 -5 6 -7 4 -4 -5 2 -8 14 -16 28 -17 46 -5 63 -10 66 -19 2 -7
-550 -12 -602 -5 -6 0 -10 40 -10 99 1 80 4 96 15 93 8 -2 21 -4 28 -4 6 0 12
-5 12 -10 0 -6 3 -7 7 -4 3 4 16 1 27 -6 34 -21 76 -37 76 -29 0 7 -107 57
-122 57 -15 0 -49 36 -43 45 3 6 1 10 -5 10 -7 0 -10 -7 -7 -14 7 -17 -13 -12
-50 11 -16 11 -23 11 -29 2 -4 -7 -3 -10 2 -7 5 3 24 -4 43 -16 l35 -22 0
-105 1 -104 -287 1 c-159 0 -288 -2 -288 -5 0 -4 125 -6 278 -6 152 1 282 0
288 -2 6 -2 10 -22 8 -44 -1 -22 2 -37 7 -33 5 3 7 17 5 30 -3 14 -3 31 0 37
3 9 120 12 472 12 257 0 472 -3 477 -7 7 -4 10 -67 10 -167 -1 -89 2 -161 5
-161 4 0 6 75 6 168 l-1 167 135 -1 c97 -1 139 2 150 11 8 7 38 16 65 19 104
13 119 16 128 25 7 7 3 9 -12 8 -11 -1 -21 -5 -21 -9 0 -4 -10 -5 -21 -3 -12
3 -27 1 -33 -3 -6 -4 -18 -7 -26 -8 -8 0 -42 -4 -75 -9 -33 -5 -64 -8 -68 -7
-5 2 -6 -2 -2 -8 3 -5 1 -10 -4 -10 -6 0 -11 4 -11 8 0 5 -7 9 -15 9 -8 0 -12
-4 -9 -9 3 -4 0 -8 -5 -8 -6 0 -11 5 -11 12 0 9 -3 9 -12 0 -15 -15 -32 -16
-22 -1 4 8 1 8 -12 2 -11 -5 -41 -9 -68 -9 l-50 1 0 418 c-1 231 1 422 4 425
3 4 17 7 33 8 64 2 77 5 77 13 0 6 -12 6 -27 2 -24 -6 -168 -7 -168 -1 0 1
-27 3 -60 4 -58 3 -111 11 -147 22 -10 3 -18 1 -18 -4z m20 -878 c0 -8 -19
-13 -24 -6 -3 5 1 9 9 9 8 0 15 -2 15 -3z"/>
<path d="M2786 1231 c8 -8 64 -10 64 -2 0 4 -16 7 -35 7 -19 0 -32 -2 -29 -5z"/>
<path d="M2713 1214 c0 -10 5 -10 19 -3 11 6 26 8 34 5 9 -3 12 -1 9 4 -9 14
-62 9 -62 -6z"/>
<path d="M1182 1196 c-12 -14 -19 -27 -14 -30 5 -3 19 8 31 24 26 36 15 39
-17 6z"/>
<path d="M3940 1212 c0 -16 28 -34 34 -23 4 6 -3 15 -14 21 -11 6 -20 7 -20 2z"/>
<path d="M4298 1166 c-14 -20 -28 -34 -31 -31 -4 3 -5 2 -2 -1 2 -4 -3 -13
-11 -21 -8 -9 -12 -18 -9 -21 3 -3 13 5 22 18 9 13 25 32 35 42 10 10 15 18
11 18 -5 0 -1 4 7 10 8 5 12 12 8 15 -3 4 -17 -10 -30 -29z"/>
<path d="M3992 1166 c10 -7 14 -17 10 -21 -4 -5 -1 -5 6 -1 10 6 10 11 1 22
-6 8 -17 14 -23 14 -6 0 -3 -7 6 -14z"/>
<path d="M1122 1135 c-12 -13 -19 -26 -15 -28 5 -3 19 5 31 18 12 13 19 26 15
28 -5 3 -19 -5 -31 -18z"/>
<path d="M4020 1132 c0 -16 28 -34 34 -23 4 6 -3 15 -14 21 -11 6 -20 7 -20 2z"/>
<path d="M880 1118 c0 -6 3 -8 7 -5 3 4 19 -11 35 -33 17 -22 34 -40 39 -40 4
0 13 -9 19 -20 9 -17 6 -24 -16 -44 -19 -16 -24 -25 -15 -30 7 -5 10 -2 9 6
-2 7 3 12 10 10 7 -1 15 5 18 13 4 8 12 15 20 15 24 0 16 17 -18 41 -18 13
-35 26 -38 30 -49 67 -70 84 -70 57z"/>
<path d="M1058 1068 c-21 -16 -38 -35 -38 -41 0 -7 7 -3 15 7 8 11 15 16 15
12 0 -5 12 3 27 18 37 37 25 40 -19 4z"/>
<path d="M4072 1086 c10 -7 14 -17 10 -21 -4 -5 -1 -5 6 -1 10 6 10 11 1 22
-6 8 -17 14 -23 14 -6 0 -3 -7 6 -14z"/>
<path d="M4197 1054 c-16 -19 -34 -34 -42 -34 -8 0 -15 -5 -15 -12 0 -7 -26
-36 -57 -65 -31 -29 -54 -55 -51 -58 3 -3 19 10 37 30 17 20 31 33 31 29 0 -4
10 5 23 19 29 35 38 34 71 -5 15 -18 32 -33 39 -33 7 -1 11 -7 9 -14 -1 -7 2
-10 8 -6 8 5 8 11 -1 21 -6 7 -15 11 -20 8 -5 -3 -9 -1 -9 5 0 6 -11 21 -25
35 -14 14 -25 28 -25 33 0 4 16 21 36 39 20 17 33 34 27 37 -5 3 -21 -10 -36
-29z"/>
<path d="M4110 1040 c6 -11 15 -18 21 -14 6 4 6 11 -2 20 -17 21 -31 17 -19
-6z"/>
<path d="M1026 981 c-7 -10 -1 -15 17 -12 4 0 7 -5 7 -12 0 -7 9 -20 20 -30
30 -25 24 -3 -9 33 -18 20 -31 28 -35 21z"/>
<path d="M906 915 c-15 -12 -24 -25 -19 -28 9 -5 59 40 52 47 -2 3 -17 -6 -33
-19z"/>
<path d="M1100 912 c0 -10 26 -32 140 -122 28 -22 40 -25 40 -9 0 5 -4 8 -9 5
-4 -3 -19 6 -31 19 -13 14 -28 25 -35 25 -6 0 -17 9 -25 20 -8 11 -18 20 -23
20 -4 0 -19 12 -32 26 -14 15 -25 22 -25 16z"/>
<path d="M4270 880 c6 -11 15 -18 21 -14 6 4 6 11 -2 20 -17 21 -31 17 -19 -6z"/>
<path d="M4005 877 c-6 -7 -15 -18 -19 -25 -7 -11 -4 -11 13 0 12 7 21 18 21
25 0 16 -2 16 -15 0z"/>
<path d="M832 845 c-18 -19 -29 -36 -25 -38 5 -3 23 10 41 28 18 19 29 36 25
38 -5 3 -23 -10 -41 -28z"/>
<path d="M4300 854 c0 -6 6 -17 14 -23 11 -9 16 -9 22 1 4 7 4 10 -1 6 -4 -4
-14 0 -21 10 -7 9 -14 12 -14 6z"/>
<path d="M3940 820 c-14 -15 -28 -26 -32 -24 -4 3 -12 -5 -18 -17 -10 -17 -9
-20 3 -12 31 18 78 64 75 72 -2 5 -14 -3 -28 -19z"/>
<path d="M4350 800 c6 -11 15 -18 21 -14 6 4 6 11 -2 20 -17 21 -31 17 -19 -6z"/>
<path d="M762 775 c-12 -13 -19 -26 -15 -28 5 -3 19 5 31 18 12 13 19 26 15
28 -5 3 -19 -5 -31 -18z"/>
<path d="M4380 774 c0 -6 6 -17 14 -23 11 -9 16 -9 22 1 4 7 4 10 -1 6 -4 -4
-14 0 -21 10 -7 9 -14 12 -14 6z"/>
<path d="M1290 755 c0 -9 4 -14 9 -10 6 3 19 -5 30 -17 12 -12 28 -23 37 -24
9 -1 21 -10 28 -19 6 -9 19 -17 27 -18 9 -2 24 -10 33 -20 10 -9 21 -17 26
-17 5 0 17 -3 27 -6 16 -6 16 -5 -2 9 -11 8 -23 13 -26 11 -4 -2 -14 5 -24 16
-10 11 -22 17 -26 14 -5 -3 -9 -1 -9 5 0 13 -55 42 -64 34 -3 -4 -6 -1 -6 5 0
6 -13 20 -30 32 -26 18 -30 19 -30 5z"/>
<path d="M3861 762 c-1 -7 -5 -11 -10 -8 -10 7 -47 -32 -38 -40 4 -4 9 1 13
10 3 9 9 14 13 12 12 -8 34 11 28 25 -4 11 -6 11 -6 1z"/>
<path d="M702 716 c-12 -14 -19 -27 -14 -30 5 -3 19 8 31 24 26 36 15 39 -17
6z"/>
<path d="M4420 732 c0 -16 28 -34 34 -23 4 6 -3 15 -14 21 -11 6 -20 7 -20 2z"/>
<path d="M3770 703 c-14 -9 -28 -21 -31 -26 -3 -5 -10 -9 -15 -9 -16 0 -39
-16 -33 -23 4 -3 13 0 21 7 7 7 20 14 28 16 8 2 20 10 26 17 6 8 13 12 16 9 3
-2 8 2 11 11 8 19 7 19 -23 -2z"/>
<path d="M4472 686 c10 -7 14 -17 10 -21 -4 -5 -1 -5 6 -1 10 6 10 11 1 22 -6
8 -17 14 -23 14 -6 0 -3 -7 6 -14z"/>
<path d="M642 655 c-12 -13 -19 -26 -15 -28 5 -3 19 5 31 18 12 13 19 26 15
28 -5 3 -19 -5 -31 -18z"/>
<path d="M4500 652 c0 -16 28 -34 34 -23 4 6 -3 15 -14 21 -11 6 -20 7 -20 2z"/>
<path d="M3650 630 c-8 -5 -12 -11 -9 -14 2 -3 11 -1 19 4 8 5 12 11 9 14 -2
3 -11 1 -19 -4z"/>
<path d="M586 595 c-15 -12 -24 -25 -19 -28 9 -5 59 40 52 47 -2 3 -17 -6 -33
-19z"/>
<path d="M4552 606 c10 -7 14 -17 10 -21 -4 -5 -1 -5 6 -1 10 6 10 11 1 22 -6
8 -17 14 -23 14 -6 0 -3 -7 6 -14z"/>
<path d="M4590 560 c6 -11 15 -18 21 -14 6 4 6 11 -2 20 -17 21 -31 17 -19 -6z"/>
<path d="M512 525 c-18 -19 -29 -36 -25 -38 5 -3 23 10 41 28 18 19 29 36 25
38 -5 3 -23 -10 -41 -28z"/>
<path d="M3490 551 c0 -5 -13 -11 -30 -14 -16 -4 -30 -12 -30 -18 0 -8 4 -8
13 -2 6 6 24 13 40 17 25 6 39 26 17 26 -5 0 -10 -4 -10 -9z"/>
<path d="M4620 534 c0 -6 6 -17 14 -23 11 -9 16 -9 22 1 4 7 4 10 -1 6 -4 -4
-14 0 -21 10 -7 9 -14 12 -14 6z"/>
<path d="M3398 513 c-10 -2 -18 -8 -18 -13 0 -4 9 -6 20 -3 11 3 20 9 20 14 0
5 -1 8 -2 8 -2 -1 -11 -3 -20 -6z"/>
<path d="M1790 490 c0 -6 4 -9 9 -6 5 4 12 1 14 -4 3 -6 4 -5 3 2 -3 15 -26
23 -26 8z"/>
<path d="M3350 490 c0 -5 5 -10 10 -10 6 0 10 5 10 10 0 6 -4 10 -10 10 -5 0
-10 -4 -10 -10z"/>
<path d="M4670 480 c6 -11 15 -18 21 -14 6 4 6 11 -2 20 -17 21 -31 17 -19 -6z"/>
<path d="M1830 481 c0 -10 30 -24 37 -17 3 2 -5 9 -16 16 -12 6 -21 7 -21 1z"/>
<path d="M442 455 c-12 -13 -19 -26 -15 -28 5 -3 19 5 31 18 12 13 19 26 15
28 -5 3 -19 -5 -31 -18z"/>
<path d="M3290 468 c0 -4 7 -8 15 -8 8 0 15 4 15 8 0 5 -7 9 -15 9 -8 0 -15
-4 -15 -9z"/>
<path d="M1886 460 c14 -14 76 -31 69 -19 -4 5 -15 9 -25 9 -10 0 -22 5 -25
10 -3 6 -11 10 -18 10 -7 0 -8 -3 -1 -10z"/>
<path d="M3260 459 c0 -7 -3 -10 -6 -6 -3 3 -17 2 -31 -4 -13 -5 -38 -11 -56
-15 -18 -3 -36 -10 -42 -16 -7 -8 -4 -9 10 -4 11 4 28 9 38 11 10 2 27 7 37
10 10 3 28 8 41 10 27 5 33 11 20 20 -6 3 -11 1 -11 -6z"/>
<path d="M4700 454 c0 -6 6 -17 14 -23 11 -9 16 -9 22 1 4 7 4 10 -1 6 -4 -4
-14 0 -21 10 -7 9 -14 12 -14 6z"/>
<path d="M1970 432 c0 -5 6 -9 13 -9 6 0 23 -3 37 -8 16 -5 22 -4 15 3 -14 13
-65 24 -65 14z"/>
<path d="M2055 412 c6 -6 24 -14 40 -18 17 -4 26 -3 22 2 -4 4 -13 9 -20 10
-7 1 -21 5 -32 10 -14 5 -17 4 -10 -4z"/>
<path d="M3080 412 c0 -5 7 -9 15 -9 8 0 15 4 15 9 0 4 -7 8 -15 8 -8 0 -15
-4 -15 -8z"/>
<path d="M4740 412 c0 -16 28 -34 34 -23 4 6 -3 15 -14 21 -11 6 -20 7 -20 2z"/>
<path d="M3910 351 c0 -3 197 -6 438 -6 240 0 442 -3 447 -7 6 -4 10 -65 9
-155 -1 -81 2 -154 5 -161 4 -6 6 65 6 158 -1 148 1 167 13 145 7 -14 18 -23
24 -19 7 5 5 11 -6 19 -22 17 -6 22 67 20 32 -1 59 1 61 4 2 3 -236 6 -530 7
-294 0 -534 -2 -534 -5z"/>
<path d="M4990 351 c0 -4 36 -7 80 -7 44 0 80 3 80 6 0 3 -36 6 -80 6 -44 1
-80 -2 -80 -5z"/>
<path d="M4860 291 c0 -16 28 -33 35 -21 4 6 1 9 -7 8 -7 -2 -12 3 -10 10 1 6
-2 12 -8 12 -5 0 -10 -4 -10 -9z"/>
<path d="M222 236 c-12 -14 -19 -27 -14 -30 5 -3 19 8 31 24 26 36 15 39 -17
6z"/>
<path d="M4900 252 c0 -16 28 -34 34 -23 4 6 -3 15 -14 21 -11 6 -20 7 -20 2z"/>
<path d="M1604 131 c0 -66 3 -118 6 -115 7 8 7 234 -1 234 -3 0 -5 -54 -5
-119z"/>
<path d="M4952 206 c10 -7 14 -17 10 -21 -4 -5 -1 -5 6 -1 10 6 10 11 1 22 -6
8 -17 14 -23 14 -6 0 -3 -7 6 -14z"/>
<path d="M162 175 c-12 -13 -19 -26 -15 -28 5 -3 19 5 31 18 12 13 19 26 15
28 -5 3 -19 -5 -31 -18z"/>
<path d="M4980 172 c0 -16 28 -34 34 -23 4 6 -3 15 -14 21 -11 6 -20 7 -20 2z"/>
<path d="M106 115 c-15 -12 -24 -25 -19 -28 9 -5 59 40 52 47 -2 3 -17 -6 -33
-19z"/>
<path d="M5032 126 c10 -7 14 -17 10 -21 -4 -5 -1 -5 6 -1 10 6 10 11 1 22 -6
8 -17 14 -23 14 -6 0 -3 -7 6 -14z"/>
<path d="M5070 80 c6 -11 15 -18 21 -14 6 4 6 11 -2 20 -17 21 -31 17 -19 -6z"/>
<path d="M44 57 c-34 -36 -39 -54 -8 -27 16 14 33 28 37 31 5 4 5 9 0 12 -5 3
-18 -4 -29 -16z"/>
<path d="M5100 54 c0 -15 39 -49 47 -41 3 4 1 7 -6 7 -7 0 -9 5 -5 13 4 6 4 9
-1 5 -4 -4 -14 0 -21 10 -7 9 -14 12 -14 6z"/>
</g>
</svg>
